#!OML:ASF E:/inclinewalkrobotboard/Project1/Captureday1/Session1/subject1.ASF
:FULLY-SPECIFIED
:DEGREES
188
root 0 0 0 -1.6056677876834302 -0.23574218933166557 0.2970861888194585
lowerback 9.15358572655845 -1.410071475514755 -1.8184770625350277
upperback 0.13286360400705668 -2.0512143030301893 1.5811766335993354
thorax -4.931176481783885 -0.9699927149614653 2.943082175877836
lowerneck -17.96631854922859 -1.8889868419035385 -1.7770087713480192
upperneck 15.982726279167373 -1.9372084888142707 -1.002648364488511
head 7.80004880219843 -1.1327683109065436 -0.2973457505564448
rclavicle 1.941788951424829E-15 7.123389014665616E-17
rhumerus -33.268498242145036 -30.363829495037248 -81.31613288468343
rradius 16.395658453749213
rwrist 16.558728760759628
rhand -20.10383003313015 25.77356349137198
rfingers 7.125019999999986
rthumb 6.272207784927677 -4.344641861190091
lclavicle 1.4576323905155083E-15 -8.387426518229631E-16
lhumerus -31.531644293713825 -3.910407744763762 80.37821482706451
lradius 35.415666291581296
lwrist 12.476057936107324
lhand -29.054957288861477 26.991025878324976
lfingers 7.125020000000007
lthumb -2.446530344503005 57.06491686135103
rfemur -19.961430758306804 4.553890724632468 24.11345013132442
rtibia 37.96133072595135
rfoot -8.086697291252538 -8.326528967116225
rtoes 2.1420661884529277
lfemur 6.172826427443243 -5.748845373889831 -23.922230437994774
ltibia 27.890687419036425
lfoot -14.06275272744611 -0.7884663125961908
ltoes -5.90024451701111
189
root 0 0 0 -1.739643120925137 -0.3910567842480288 0.08593567839959393
lowerback 9.64958195856976 -1.4020549782302916 -1.688422010745908
upperback 0.12948734452000077 -2.007218528562107 1.6527113213499751
thorax -5.2133700554078795 -0.9541022672903778 2.927942054602748
lowerneck -17.96440845306095 -1.8788734648459449 -1.557954885101938
upperneck 15.936922031060657 -1.9094031670992433 -1.2767123648765455
head 7.816643433253733 -1.1289716830398149 -0.4220163968722112
rclavicle 1.6486203674237596E-15 2.544850859123777E-17
rhumerus -33.27453781025976 -30.36509508237456 -81.31669078315667
rradius 16.363511762215246
rwrist 16.583366926745562
rhand -20.067163528137854 25.736350905068527
rfingers 7.125019999999985
rthumb 6.307968912394729 -4.3769953947905975
lclavicle 1.4468358187471414E-15 -8.101121522608282E-16
lhumerus -31.271636800040298 -3.735396763542575 80.85870357165496
lradius 34.66594392106858
lwrist 11.857953324469094
lhand -28.901873328378173 26.78164017196056
lfingers 7.12502000000001
lthumb -2.2937765062436863 56.83368585665949
rfemur -18.97274902956713 4.6469949469940275 24.593506293806264
rtibia 38.24431353864681
rfoot -8.173070223227013 -8.087432037925202
rtoes 2.5379014601076744
lfemur 3.8688296444459374 -4.712007949908262 -23.200527907099055
ltibia 30.250793179322248
lfoot -12.041789626148537 -2.006524433598829
ltoes -5.77084460802779
190
root 0 0 0 -1.987049423894177 -0.6256208072438842 -0.01130605674480023
lowerback 10.16879278753471 -1.3677565529313327 -1.6451382689114522
upperback 0.12088940174393498 -1.942585346319374 1.7026275154439081
thorax -5.51136505102121 -0.9238759974802688 2.9416001887349883
lowerneck -17.911819645960843 -1.8924631511466905 -1.3841754739035175
upperneck 15.735526229791681 -1.914953881266601 -1.4448708252739124
head 7.773872328495518 -1.1392368392225043 -0.5061413341816521
rclavicle 1.4030331927021488E-15 -2.911160840059186E-16
rhumerus -33.1190509614483 -30.191436857831402 -81.31365196743116
rradius 16.47626118339727
rwrist 16.73672956670248
rhand -20.038523402098964 25.823333928463818
rfingers 7.125019999999985
rthumb 6.3354258993920025 -4.285605133491494
lclavicle 1.4177383752790145E-15 -1.0003348271709075E-15
lhumerus -31.05852879885305 -3.6333355419693207 81.21729003762633
lradius 34.162887671808384
lwrist 11.436214580005284
lhand -28.794957672411954 26.604361155155313
lfingers 7.125020000000012
lthumb -2.1873419783004753 56.64271029411605
rfemur -18.28148074831844 4.72827899997956 25.10488374754962
rtibia 38.83916929411795
rfoot -8.210190714668716 -7.916185042671586
rtoes 2.9698207166104185
lfemur 1.0327162449428036 -3.436325619928733 -22.421092093335183
ltibia 32.77133455610906
lfoot -9.756705645650253 -3.3596822935308217
ltoes -5.571487165518466
191
root 0 0 0 -2.3947425739086086 -1.0094533478471106 -0.13376379235696767
lowerback 10.919679208057108 -1.3030842913706215 -1.5999587332933947
upperback 0.0952502659619538 -1.8313121029924944 1.7709749590371486
thorax -5.955981366434667 -0.8702797909415501 2.9670084020119702
lowerneck -17.817314610226333 -1.9255787855217728 -1.1388374338467873
upperneck 15.434225611986102 -1.9444412927691186 -1.6535953156372172
head 7.707713296273371 -1.1623158565979388 -0.61741013301079
rclavicle 1.186078173948579E-15 -8.450548241916653E-16
rhumerus -32.78880448050437 -29.94166178949581 -81.21641921227946
rradius 16.625346584476915
rwrist 16.836928181870707
rhand -19.961764271799545 25.99135950700974
rfingers 7.125019999999985
rthumb 6.408611632683414 -4.10797764852682
lclavicle 1.3839521793583101E-15 -1.3901401839786424E-15
lhumerus -30.88636681140509 -3.5478897088533805 81.56409907416617
lradius 33.75138345581334
lwrist 11.055205399870339
lhand -28.672068116454817 26.366918872742826
lfingers 7.125020000000013
lthumb -2.0651086805207033 56.391520176439315
rfemur -17.31606276383979 4.869724495916138 25.87372497725897
rtibia 39.59833151543049
rfoot -8.341145115918366 -7.700988185454033
rtoes 3.5307693017797463
lfemur -4.068674133546997 -1.254588998598472 -21.13976529365094
ltibia 36.68340453178254
lfoot -5.980880779572436 -5.508554658453404
ltoes -5.0707909823153905
